# xmcd
# Track frame offsets:
# 150
# 25783
# 45341
# 61246
# 79775
# 95545
# 138302
# 172390
# 189723
# 206417
# 222304
# 241838
#
# Disc length: 3327 seconds
# Revision: 0
# Processed by: cddbd v1.4PL0 Copyright (c) Steve Scherf et al.
# Submitted via: VisiTrax 2.9.5.181 - For more info visit www.synapsa.com
#
DISCID=a40cfd0c
DTITLE=Swamp Dogg - If I Ever Kiss It....He Can Kiss It Goodbye!
DYEAR=2003
DGENRE=Blues
TTITLE0=Pass The Sugar
TTITLE1=If I Ever Kiss It (He Can Kiss It Goodbye)
TTITLE2=All Night Lover Man
TTITLE3=Wonderful Is The Word
TTITLE4=Walking Blues
TTITLE5=Let's Bump The Donkey
TTITLE6=The Whiskey Song
TTITLE7=If All Else Fails (We'll Have Each Other)
TTITLE8=WAM BAM (Thank You Mam)
TTITLE9=Sliding On Thin Ice
TTITLE10=The Lie That Had To Be Told
TTITLE11=Return Of The Donkey (Reprise)
EXTD=
EXTT0=
EXTT1=
EXTT2=
EXTT3=
EXTT4=
EXTT5=
EXTT6=
EXTT7=
EXTT8=
EXTT9=
EXTT10=
EXTT11=
PLAYORDER=
